<svg width="500" height="472" viewBox="0 0 500 472" fill="none" xmlns="http://www.w3.org/2000/svg">
<g clip-path="url(#clip0_1_50)">
<path fill-rule="evenodd" clip-rule="evenodd" d="M196.043 4.36641C182.585 7.42164 161.587 14.5906 149.381 20.2978L127.182 30.6731L138.847 34.1316C145.263 36.0314 163.042 39.3774 178.351 41.568C202.86 45.073 208.891 44.6039 228.769 37.6404C241.185 33.2864 256.938 29.7271 263.77 29.7271C270.606 29.7271 287.287 33.1933 300.847 37.4311C325.998 45.294 375.436 47.9654 384.905 41.9751C391.616 37.7257 360.885 21.3873 325.496 10.3916C290.328 -0.538229 229.998 -3.34531 196.043 4.36641ZM94.8487 48.9773C75.1378 64.5908 48.4392 92.3941 38.2008 107.976C32.3369 116.898 32.3136 118.914 37.9558 132.376C43.7614 146.233 43.6408 148.121 35.7627 166.382C29.3311 181.282 27.9934 189.87 29.9182 203.821C32.2902 221.028 31.6097 222.838 16.2073 240.286L0 258.648L6.07775 285.494C15.8301 328.542 36.4354 364.716 70.351 398.327C86.6361 414.464 110.232 433.466 122.784 440.554L145.605 453.438L163.613 444.427C179.226 436.619 187.609 435.382 226.623 435.157C269.155 434.909 272.46 434.312 286.895 424.27C295.294 418.431 306.924 409.839 312.745 405.182C321.102 398.494 330.637 396.191 358.163 394.21C378.469 392.748 395.952 389.437 400.078 386.266C403.97 383.272 415.97 371.618 426.745 360.362C443.279 343.097 448.517 339.902 460.295 339.902C467.971 339.902 476.048 337.723 478.241 335.056C480.434 332.392 486.274 317.124 491.224 301.13C498.193 278.604 500.168 263.316 499.989 233.279C499.802 201.626 497.819 188.839 489.179 163.637C483.358 146.659 470.732 120.973 461.12 106.557C440.46 75.5748 402.166 39.7108 395.571 45.1699C393.152 47.1706 377.271 49.9001 360.279 51.2377C334.999 53.2306 324.788 52.2109 304.109 45.6274C274.059 36.0624 254.429 35.3955 235.461 43.2972C216.582 51.1602 180.202 50.5709 143.455 41.8007L113.07 34.5503L94.8487 48.9773ZM216.396 69.3636C221.272 76.3037 222.45 90.2461 222.45 141.092V204.201H239.171C248.367 204.201 257.991 206.294 260.558 208.853C266.499 214.777 266.589 239.623 260.709 252.483C256.568 261.548 254.184 262.358 231.639 262.358C210.446 262.358 206.293 261.16 201.375 253.635C197.712 248.032 193.508 221.152 189.62 178.499C182.348 98.7527 182.017 71.593 188.231 65.3972C195.654 57.9957 209.813 59.9885 216.396 69.3636ZM397.433 72.5506C397.433 77.8973 378.119 97.0583 375.432 94.3792C372.104 91.0603 386.927 68.499 392.441 68.499C395.186 68.499 397.433 70.3213 397.433 72.5506ZM143.968 88.9046C159.534 101.785 171.9 150.955 171.9 199.967C171.9 225.932 162.968 249.339 151.695 252.906C147.767 254.15 138.789 253.266 131.739 250.948C102.241 241.239 70.8332 192.069 70.9226 155.736C70.9965 125.125 88.872 93.5301 111.628 83.7867C120.427 80.0181 136.257 82.5228 143.968 88.9046ZM349.581 85.9386C354.158 89.1334 360.932 99.6599 364.634 109.33C370.292 124.102 371.015 135.287 369.164 179.324C367.515 218.511 365.349 234.183 360.582 241.441C347.664 261.098 335.396 256.884 335.276 232.748C335.225 222.33 333.611 220.353 324.01 218.949C313.788 217.453 312.108 218.949 304.902 235.959C300.294 246.834 294.489 254.604 290.97 254.604C281.7 254.604 275.855 240.045 278.744 224.149C285.23 188.463 317.209 98.237 327.95 85.3376C333.557 78.599 339.3 78.758 349.581 85.9386ZM435.743 130.805C453.934 166.507 461.396 200.323 451.091 200.323C447.965 200.323 438.749 188.215 430.614 173.416C422.479 158.616 409.06 139.06 400.793 129.952C392.53 120.849 385.768 111.497 385.768 109.171C385.768 101.106 395.512 95.2942 407.135 96.4341C417.549 97.4538 420.66 101.188 435.743 130.805ZM107.432 133.333C99.6587 141.084 101.44 158.062 113.307 189.3C121.376 210.551 129.433 218.496 137.727 213.386C146.511 207.973 130.343 133.318 119.486 129.161C116.356 127.967 110.932 129.84 107.432 133.333ZM20.8619 146.105C11.5722 166.561 6.42772 188.568 2.7453 223.586L0.093325 248.788L11.8639 235.218C22.1956 223.303 23.545 219.035 22.915 200.234C22.4406 186.179 24.7348 173.183 29.5877 162.428C35.3077 149.753 36.0582 144.058 32.9007 137.315C29.0161 129.026 28.4212 129.46 20.8619 146.105ZM332.534 160.497C329.482 168.751 329.237 173.834 331.819 175.424C337.896 179.169 339.763 175.071 338.41 160.954L337.161 147.981L332.534 160.497ZM426.376 197.311C438.22 214.165 430.672 246.218 418.704 229.899C414.438 224.083 413.722 224.478 411.969 233.632C410.654 240.487 412.428 246.291 417.327 251.177C421.356 255.193 426.205 258.481 428.098 258.481C434.293 258.481 444.096 284.489 444.096 300.925C444.096 312.812 441.615 319.465 434.549 326.506C429.3 331.741 422.402 336.025 419.217 336.025C411.65 336.025 401.322 321.113 401.322 310.191C401.322 301.122 407.151 295.59 416.876 295.415C426.352 295.249 423.525 284.385 413.823 283.671C401.851 282.795 397.476 277.72 393.335 259.923C388.21 237.905 388.906 217.371 395.291 202.138C399.584 191.89 403.231 188.692 410.623 188.692C416.238 188.692 422.872 192.321 426.376 197.311ZM469.857 224.525C477.992 240.204 482.277 289.499 475.507 289.499C468.5 289.499 455.419 256.709 452.961 232.989C451.134 215.32 451.787 211.955 457.06 211.955C460.513 211.955 466.272 217.612 469.857 224.525ZM68.4379 221.966C69.7366 225.339 70.876 242.348 70.9693 259.768L71.1404 291.437L79.2829 275.928C91.8428 251.999 98.3172 249.412 108.167 264.402C114.159 273.521 114.159 277.53 108.136 322.319C99.5771 386.006 93.0133 404.186 83.8869 389.464C80.7956 384.474 81.3516 335.598 84.653 322.455C85.7223 318.19 82.9459 321.354 78.478 329.488C74.0101 337.622 68.3212 343.601 65.8326 342.775C63.3439 341.949 59.2415 333.547 56.714 324.11L52.1178 306.946L51.6784 322.455C51.4334 330.985 49.6486 340.468 47.7043 343.531C44.6713 348.312 43.2442 348.331 37.6058 343.663C21.6824 330.484 42.9487 215.832 61.318 215.832C63.935 215.832 67.1391 218.593 68.4379 221.966ZM141.18 266.961C144.322 272.815 144.941 287.665 143.171 314.933C140.698 353.046 143.887 374.797 151.94 374.797C153.904 374.797 156.695 356.915 158.15 335.056C159.6 313.196 161.657 292.263 162.719 288.529C165.503 278.732 175.248 280.193 180.256 291.158C183.371 297.974 183.429 314.297 180.466 350.285C178.215 377.627 175.181 403.05 173.719 406.784C170.014 416.263 155.35 415.244 145.812 404.845C127.353 384.715 123.589 371.199 122.045 319.485C121.228 292.263 121.563 267.399 122.78 264.235C126.038 255.767 135.962 257.237 141.18 266.961ZM383.058 273.99C388.292 284.121 389.742 294.159 388.77 313.607C387.358 341.938 379.85 356.45 361.119 367.042C341.497 378.143 331.562 362.394 330.551 318.578C330.255 305.783 332.277 290.953 335.046 285.621C350.752 255.368 370.914 250.486 383.058 273.99ZM314.655 285.621C321.207 298.598 320.989 348.618 314.313 364.549C308.775 377.763 282.749 401.937 274.059 401.937C271.337 401.937 269.004 398.009 268.867 393.213C268.731 388.417 267.269 365.298 265.621 341.841C263.972 318.384 263.459 295.946 264.485 291.984C266.733 283.307 286.782 273.769 300.131 275.025C305.929 275.568 311.707 279.786 314.655 285.621ZM212.869 281.969C214.269 284.226 218.566 294.997 222.415 305.903L229.418 325.735L232.778 304.709C235.535 287.421 237.51 283.683 243.872 283.683C251.225 283.683 251.567 286.017 250.65 330.209C250.117 355.799 248.682 384.253 247.457 393.446C245.77 406.144 243.713 409.862 238.895 408.939C234.707 408.133 230.313 399.177 225.934 382.536L219.312 357.349L218.939 377.232C218.69 390.402 216.45 398.855 212.309 402.286C206.993 406.683 205.24 406.349 200.643 400.08C196.623 394.598 195.231 378.593 195.231 337.87C195.231 307.71 196.397 281.872 197.824 280.453C201.759 276.529 210.011 277.359 212.869 281.969ZM352.801 296.989C349.745 306.585 354.209 339.165 358.98 342.108C360.862 343.268 364.42 339.805 366.885 334.412C369.922 327.759 370.241 319.376 367.873 308.334C364.004 290.297 356.682 284.788 352.801 296.989ZM285.071 336.025C285.448 350.952 287.093 363.165 288.722 363.165C290.352 363.165 293.602 357.671 295.951 350.956C303.394 329.674 300.423 308.885 289.943 308.885C285.588 308.885 284.534 314.762 285.071 336.025ZM449.928 349.343C443.512 352.092 432.496 361.56 425.45 370.377C418.4 379.197 407.244 389.189 400.657 392.589C393.677 396.187 376.914 399.157 360.504 399.704C331.01 400.685 323.4 403.825 294.077 427.139C279.993 438.336 277.613 438.848 230.535 440.837C196.584 442.268 178.148 444.78 170.27 449.041L158.92 455.183L172.215 459.37C202.638 468.947 235.792 472.769 268.424 470.459C326.802 466.326 378.963 444.547 420.71 406.88C447.296 382.892 469.978 352.484 464.938 347.587C463.099 345.799 456.344 346.59 449.928 349.343Z" fill="#E8F1F8"/>
</g>
<defs>
<clipPath id="clip0_1_50">
<rect width="500" height="471.114" fill="white"/>
</clipPath>
</defs>
</svg>
